<?xml version="1.0" standalone="no"?>
<!DOCTYPE svg PUBLIC "-//W3C//DTD SVG 20010904//EN"
 "http://www.w3.org/TR/2001/REC-SVG-20010904/DTD/svg10.dtd">
<svg version="1.0" xmlns="http://www.w3.org/2000/svg"
 width="256.000000pt" height="256.000000pt" viewBox="0 0 256.000000 256.000000"
 preserveAspectRatio="xMidYMid meet">
<metadata>
Created by potrace 1.15, written by Peter Selinger 2001-2017
</metadata>
<g transform="translate(0.000000,256.000000) scale(0.100000,-0.100000)"
fill="#ff0000" stroke="none">
<path d="M1340 2076 c0 -2 -11 -58 -25 -126 -14 -68 -25 -127 -25 -131 0 -5
69 -9 153 -9 l153 0 23 123 c13 67 26 128 29 135 3 9 -31 12 -152 12 -86 0
-156 -2 -156 -4z"/>
<path d="M990 1593 c-23 -8 -80 -65 -96 -95 -19 -37 -18 -91 4 -118 23 -29 83
-38 250 -39 122 -1 122 -1 117 -23 -3 -13 -32 -147 -64 -298 l-58 -275 -189
-5 c-121 -3 -197 -9 -210 -17 -35 -20 -82 -79 -89 -112 -9 -43 10 -96 41 -110
18 -8 176 -11 550 -11 431 0 530 3 552 14 90 47 126 168 64 216 -23 19 -41 20
-238 20 -172 0 -214 3 -214 13 0 11 135 655 168 805 l10 42 -292 -1 c-160 0
-298 -3 -306 -6z"/>
</g>
</svg>
